<?xml version="1.0" standalone="no"?>
<!DOCTYPE svg PUBLIC "-//W3C//DTD SVG 20010904//EN"
 "http://www.w3.org/TR/2001/REC-SVG-20010904/DTD/svg10.dtd">
<svg version="1.0" xmlns="http://www.w3.org/2000/svg"
 width="300.000000pt" height="225.000000pt" viewBox="0 0 300.000000 225.000000"
 preserveAspectRatio="xMidYMid meet">
<metadata>
Created by potrace 1.10, written by Peter Selinger 2001-2011
</metadata>
<g transform="translate(0.000000,225.000000) scale(0.100000,-0.100000)"
fill="#000000" stroke="none">
<path d="M1360 2030 c-8 -11 -23 -18 -34 -17 -13 1 -20 -3 -18 -12 2 -9 -3
-11 -13 -7 -28 10 -119 -40 -146 -81 -68 -101 -102 -150 -118 -168 -10 -11
-26 -40 -36 -65 -11 -25 -24 -48 -28 -51 -11 -7 -13 -57 -4 -66 4 -3 21 2 39
11 l33 17 -32 -6 c-20 -4 -33 -3 -33 3 0 13 28 42 41 42 5 0 9 4 9 10 0 5 -8
6 -17 3 -16 -6 -16 -5 -4 10 13 17 47 25 37 9 -3 -5 2 -9 11 -9 12 0 11 5 -7
19 l-22 18 38 1 39 1 -38 10 c-30 8 -35 13 -27 23 6 8 19 11 27 8 11 -4 14 -2
9 5 -5 8 2 12 21 12 26 1 27 2 9 15 -24 18 -10 38 22 32 24 -5 25 -4 9 8 -14
10 -15 14 -5 18 10 4 9 6 -2 7 -8 0 1 8 20 17 19 8 29 17 23 20 -20 7 -15 20
8 26 12 3 18 10 15 15 -3 6 5 17 19 26 28 18 39 21 30 6 -4 -6 6 -10 22 -10
26 1 27 2 10 15 -18 13 -18 14 2 24 30 17 46 14 31 -4 -8 -9 -8 -15 -2 -15 6
0 12 4 14 10 2 5 18 2 36 -7 27 -13 35 -14 45 -3 7 8 7 10 1 7 -13 -7 -74 14
-74 25 0 4 10 8 23 8 13 0 28 5 34 11 7 7 13 7 17 1 3 -6 24 -8 46 -5 26 4 40
2 40 -6 0 -6 9 -11 20 -11 31 0 24 -20 -7 -21 -28 -1 -28 -1 3 -8 17 -4 36
-11 43 -15 6 -4 23 -1 36 8 13 9 28 16 32 16 4 0 1 -5 -7 -10 -12 -8 -12 -10
-1 -10 10 0 11 -3 2 -14 -14 -17 11 -41 34 -32 8 3 15 1 15 -4 0 -5 6 -10 13
-13 6 -2 5 -3 -4 -2 -9 1 -23 -1 -30 -6 -10 -6 -7 -9 11 -9 25 -1 25 -1 3 -10
-34 -14 -28 -19 16 -13 48 7 62 -11 31 -41 -20 -18 -22 -19 -16 -3 3 11 2 17
-5 15 -6 -2 -10 -8 -10 -13 0 -6 -8 -14 -17 -20 -20 -12 -27 -35 -11 -35 5 0
7 -5 3 -12 -4 -7 -3 -8 4 -4 6 4 9 13 6 20 -5 14 23 27 64 30 20 2 19 -2 -15
-37 -30 -32 -33 -36 -11 -23 14 10 29 24 32 32 4 12 10 12 26 4 25 -13 26 -2
3 30 -10 14 -16 33 -15 43 2 12 -15 35 -45 62 -26 25 -44 45 -40 45 13 0 -49
50 -62 50 -6 0 -11 5 -11 11 0 8 -5 8 -15 -1 -8 -7 -15 -17 -15 -22 0 -6 7 -5
15 2 8 7 15 8 15 2 0 -5 -7 -15 -15 -22 -12 -10 -17 -6 -28 22 -22 51 -43 68
-89 68 -35 0 -39 -2 -28 -15 8 -9 9 -15 2 -15 -6 0 -17 9 -25 20 -13 19 -13
19 -27 0z"/>
<path d="M1497 1890 c9 -10 22 -16 29 -13 13 5 19 -8 15 -30 -1 -4 8 -2 19 5
14 9 16 14 7 20 -7 4 -12 13 -12 20 0 8 -15 14 -37 15 -35 2 -36 1 -21 -17z"/>
<path d="M1445 1819 c-4 -5 14 -9 41 -9 55 0 55 5 2 13 -21 3 -40 1 -43 -4z"/>
<path d="M1575 1800 c-20 -9 -20 -9 0 -9 17 -1 17 -3 5 -11 -21 -13 -6 -12 25
2 47 21 19 39 -30 18z"/>
<path d="M1329 1788 c7 -10 19 -18 26 -18 8 0 15 -4 17 -9 2 -5 19 -11 38 -14
46 -6 120 -30 120 -38 0 -4 9 -5 20 -2 11 3 17 10 14 15 -3 5 0 9 7 7 23 -3
39 1 39 9 0 4 -21 5 -46 3 -25 -2 -56 2 -68 8 -11 6 -50 15 -84 20 -35 6 -71
16 -80 23 -15 12 -16 11 -3 -4z"/>
<path d="M1726 1733 c-3 -3 -6 -16 -5 -27 0 -20 1 -20 8 -1 6 16 10 9 19 -30
20 -93 22 -116 11 -109 -6 3 -4 -5 5 -18 13 -20 14 -31 5 -57 -7 -21 -16 -30
-25 -27 -19 7 -17 -1 6 -32 17 -21 19 -34 14 -71 -11 -72 -32 -112 -65 -124
-38 -15 -38 -28 0 -17 35 10 51 -3 51 -42 0 -15 8 -41 19 -58 27 -46 11 -92
-47 -132 -43 -29 -79 -88 -67 -108 4 -6 6 -54 5 -107 -2 -144 -4 -173 -13
-174 -15 -1 -97 102 -97 122 0 11 -11 41 -25 67 -14 26 -25 51 -25 57 0 5 14
26 30 45 41 47 38 56 -4 15 -31 -29 -40 -33 -78 -30 -24 2 -46 4 -49 4 -4 1
-9 10 -12 21 -3 11 -11 20 -19 20 -10 0 -9 -3 2 -10 12 -8 12 -10 -5 -10 -18
-1 -17 -3 8 -25 16 -14 41 -25 56 -25 36 0 77 -56 90 -123 6 -34 19 -58 50
-89 22 -24 58 -62 78 -86 l38 -43 2 206 c2 229 6 244 63 261 26 7 36 18 52 58
l19 50 -23 17 c-21 16 -23 26 -23 101 1 46 8 132 17 192 13 83 14 114 6 130
-6 12 -12 47 -14 78 -2 73 -37 152 -58 131z"/>
<path d="M1266 1722 c-4 -7 1 -9 14 -7 11 2 20 0 20 -6 0 -5 12 -9 27 -9 18 0
24 3 17 10 -15 15 -71 23 -78 12z"/>
<path d="M1365 1690 c-10 -17 37 -32 65 -21 22 9 20 10 -20 11 -38 2 -41 3
-20 10 23 7 23 8 3 9 -12 1 -25 -3 -28 -9z"/>
<path d="M1470 1660 c-28 -4 -35 -8 -18 -8 14 -1 28 -7 30 -13 3 -8 9 -7 19 4
9 8 27 17 40 20 l24 4 -25 0 c-14 0 -45 -3 -70 -7z"/>
<path d="M1579 1653 c-1 -5 -1 -11 0 -15 0 -5 -3 -8 -7 -8 -5 0 -9 -7 -9 -15
0 -17 13 -20 22 -5 4 6 11 7 17 4 7 -4 8 -2 4 5 -4 6 0 14 8 17 9 3 16 11 16
17 0 7 -4 7 -12 -1 -14 -14 -42 -16 -33 -2 3 6 4 10 1 10 -3 0 -7 -3 -7 -7z"/>
<path d="M942 1525 c3 -14 2 -27 -2 -30 -8 -5 -5 -79 4 -94 4 -6 4 -20 1 -31
-4 -12 -2 -20 5 -20 8 0 10 -10 7 -26 -4 -23 -2 -25 23 -19 24 5 28 3 33 -25
6 -29 27 -43 27 -17 0 6 4 19 10 27 7 12 12 12 29 -5 26 -22 39 -14 15 9 -11
12 -25 15 -45 11 -19 -4 -29 -3 -29 5 0 6 4 9 9 5 5 -3 12 -1 16 5 4 6 -9 10
-32 11 -34 1 -35 2 -13 9 l25 8 -28 1 c-27 1 -28 2 -11 19 16 16 16 17 1 20
-22 4 -22 18 1 32 16 11 16 11 -2 6 -13 -5 -17 -2 -12 9 3 8 1 15 -4 15 -6 0
-10 5 -10 11 0 5 6 7 13 4 6 -4 4 0 -5 8 -10 8 -14 18 -9 23 5 5 12 19 16 32
5 18 3 22 -15 22 -18 0 -21 -4 -18 -25z"/>
<path d="M1840 1537 c31 -24 47 -59 65 -137 7 -30 30 -85 38 -91 5 -3 8 -8 6
-10 -6 -11 14 -49 27 -49 8 0 -3 -18 -27 -42 -26 -27 -39 -48 -36 -60 3 -10 1
-18 -4 -18 -5 0 -9 -6 -9 -14 0 -11 -10 -13 -41 -9 -33 5 -41 3 -37 -8 3 -8
11 -14 19 -14 8 -1 23 -6 33 -12 18 -10 18 -13 3 -79 -34 -142 -53 -370 -62
-719 -3 -126 -8 -240 -11 -252 -3 -16 0 -23 10 -23 16 0 42 38 32 47 -3 3 -1
14 5 24 5 11 6 19 1 19 -5 0 -8 12 -5 28 3 23 2 24 -6 7 -10 -21 -6 274 5 365
6 44 9 90 18 235 4 61 8 94 20 155 2 8 7 34 11 58 4 23 12 45 16 48 5 3 6 17
3 31 -9 36 24 146 58 188 24 31 40 31 78 4 l29 -22 -45 -51 c-24 -28 -56 -73
-69 -101 l-25 -50 37 -36 c21 -20 40 -35 43 -32 3 3 -7 14 -23 25 -30 22 -34
43 -11 73 12 17 17 18 35 7 12 -8 24 -11 27 -8 3 3 0 6 -6 6 -7 0 -12 5 -12
11 0 5 6 7 13 3 6 -4 1 5 -12 19 l-24 26 32 26 c17 15 31 33 31 41 0 8 4 14 9
14 5 0 11 10 13 23 3 23 33 31 56 14 6 -5 12 -7 12 -3 0 3 12 1 27 -5 32 -12
73 -18 158 -23 33 -2 59 -7 58 -12 -1 -5 -14 -39 -28 -76 -13 -38 -21 -68 -16
-68 5 0 14 20 21 44 17 61 46 106 68 106 21 0 56 -33 45 -43 -3 -4 1 -7 11 -7
10 0 23 -14 31 -32 8 -18 33 -53 56 -78 l41 -45 -36 46 c-19 26 -41 59 -48 75
-7 16 -27 43 -44 61 -31 31 -35 32 -160 42 -126 10 -188 23 -289 63 -78 31
-95 45 -95 78 0 16 -5 32 -11 36 -8 4 -7 9 2 15 10 6 5 20 -23 61 -21 29 -36
56 -35 60 3 10 -45 58 -57 58 -6 0 -4 -6 4 -13z"/>
<path d="M1616 1448 c5 -8 2 -9 -10 -5 -13 5 -29 -4 -58 -35 -21 -24 -63 -68
-92 -99 l-53 -56 -64 8 c-54 7 -73 4 -121 -14 -40 -15 -58 -27 -58 -39 0 -16
10 -18 70 -18 58 0 70 -3 70 -16 0 -9 11 -29 25 -46 14 -16 25 -34 25 -39 0
-17 -30 -22 -47 -8 -15 13 -15 12 -3 -7 23 -36 7 -54 -49 -54 -53 0 -61 9 -61
74 0 21 3 26 13 19 6 -6 21 -13 31 -17 20 -7 20 -7 0 16 -41 49 -52 40 -53
-48 -1 -58 14 -78 52 -69 19 5 25 2 30 -14 6 -23 48 -37 74 -25 14 6 7 9 -25
13 l-42 6 35 29 c19 16 35 37 35 46 0 9 5 21 11 27 9 9 6 21 -11 47 -12 20
-18 36 -13 36 4 0 1 5 -7 10 -13 8 -13 10 2 10 9 0 20 9 23 20 3 11 11 20 16
20 13 0 11 -13 -3 -30 -7 -7 1 -3 18 11 17 13 30 26 28 28 -2 2 35 44 81 93
47 49 85 93 85 98 0 5 8 9 18 9 9 0 26 2 37 5 11 2 22 5 25 5 7 2 -23 21 -33
21 -5 0 -5 -5 -1 -12z m-332 -205 c4 -4 23 -6 42 -4 33 2 34 2 22 -18 -7 -11
-19 -23 -26 -26 -7 -3 -10 0 -6 6 4 6 -1 9 -12 8 -24 -4 -44 8 -44 27 0 15 12
19 24 7z"/>
<path d="M1690 1430 c-13 -8 -12 -10 4 -10 10 0 27 -10 37 -22 23 -26 25 -11
3 20 -17 25 -22 26 -44 12z"/>
<path d="M1711 1358 c-1 -14 -7 -16 -31 -11 -23 4 -30 2 -30 -10 0 -10 7 -14
23 -10 l22 5 -24 -21 c-13 -12 -18 -21 -13 -21 21 0 64 49 59 67 -4 16 -5 16
-6 1z"/>
<path d="M1076 1235 c4 -10 0 -15 -15 -15 -12 0 -21 -5 -21 -11 0 -14 96 -109
111 -109 6 0 -1 10 -17 23 -16 12 -41 36 -56 52 -23 26 -24 31 -10 37 9 4 24
7 32 7 13 1 13 0 0 -9 -13 -8 -13 -10 2 -10 9 0 30 -17 47 -37 29 -35 31 -36
31 -14 0 14 -3 21 -7 18 -8 -9 -43 22 -43 38 0 7 -11 20 -25 29 -30 20 -36 20
-29 1z"/>
<path d="M2409 1049 c-31 -33 -36 -49 -17 -49 6 0 8 3 4 7 -3 4 8 22 26 40 17
18 28 33 24 33 -4 0 -21 -14 -37 -31z"/>
<path d="M2063 1056 c1 -10 11 -24 21 -30 11 -6 38 -30 61 -53 39 -41 77 -55
90 -34 3 6 -7 9 -22 8 -20 -1 -30 4 -37 19 -5 11 -19 25 -30 30 -12 5 -20 15
-18 22 1 7 -8 12 -21 12 -15 0 -28 9 -35 23 -10 18 -11 19 -9 3z"/>
<path d="M1614 1028 c-9 -18 -24 -44 -32 -58 -11 -20 -9 -20 12 5 14 17 26 36
26 43 0 6 4 12 9 12 5 0 11 7 15 15 11 29 -14 15 -30 -17z"/>
<path d="M2190 986 c0 -8 4 -17 8 -20 13 -8 35 11 28 23 -10 16 -36 14 -36 -3z"/>
<path d="M1815 977 c-4 -9 -4 -28 -1 -41 3 -13 -1 -49 -9 -81 -9 -32 -14 -60
-12 -62 3 -2 10 18 17 44 8 26 17 50 21 53 5 3 4 28 0 55 -6 36 -10 45 -16 32z"/>
<path d="M2388 953 c7 -37 28 -68 37 -54 3 6 1 11 -4 11 -6 0 -10 3 -9 8 2 8
-20 62 -25 62 -2 0 -2 -12 1 -27z"/>
<path d="M2450 961 c0 -10 78 -47 161 -76 82 -28 179 -89 249 -157 56 -54 123
-141 132 -171 5 -17 6 -18 7 -4 1 24 -15 54 -51 95 -16 18 -26 37 -23 42 3 5
-9 19 -27 31 -18 13 -64 52 -103 87 -80 74 -176 125 -277 146 -38 7 -68 11
-68 7z"/>
<path d="M2325 925 c4 -22 9 -51 11 -64 3 -13 10 -33 15 -43 20 -37 22 -8 4
59 -20 78 -42 111 -30 48z"/>
<path d="M1203 899 c-45 -22 -100 -57 -123 -77 -44 -39 -48 -51 -100 -277 -94
-411 -122 -560 -102 -540 6 6 13 26 15 45 3 19 11 62 20 95 9 33 19 89 23 125
4 36 11 73 16 83 5 10 10 31 10 48 1 34 2 34 22 13 15 -14 16 -14 17 3 0 10 3
27 5 38 6 23 11 67 22 175 l7 75 32 -125 c33 -132 44 -170 87 -314 36 -123 43
-188 22 -217 -19 -28 -21 -49 -3 -49 6 0 20 20 31 45 18 46 18 46 -8 153 -15
59 -42 150 -61 202 -38 106 -85 290 -85 333 0 16 10 38 25 52 13 14 21 25 17
25 -10 0 37 32 51 34 7 1 23 9 37 18 39 26 80 27 80 3 0 -19 21 -57 36 -67 7
-4 14 -18 17 -30 4 -13 20 -29 39 -37 49 -21 70 -48 84 -107 13 -56 9 -71 -13
-53 -17 15 -115 20 -130 7 -10 -8 -8 -19 8 -49 20 -40 50 -59 94 -59 13 0 26
-6 29 -12 3 -7 4 1 3 17 -2 30 -4 31 -49 18 -9 -3 -24 4 -35 15 -56 59 -61 78
-16 61 14 -5 34 -7 44 -4 12 4 30 -2 46 -15 23 -18 27 -28 24 -61 -2 -31 1
-38 12 -33 12 4 16 -10 23 -68 4 -40 8 -75 9 -78 15 -63 21 -98 39 -218 12
-80 20 -101 32 -90 5 6 -15 148 -66 473 -10 66 -22 142 -25 170 -6 40 -14 55
-43 81 -24 21 -41 29 -48 23 -8 -6 -25 11 -53 52 -45 68 -47 75 -26 103 36 48
13 47 -92 -5z"/>
<path d="M2438 899 c-3 -8 0 -30 7 -49 7 -19 15 -52 19 -74 5 -25 11 -35 17
-29 7 7 5 32 -6 74 -20 78 -30 98 -37 78z"/>
<path d="M2191 891 c-9 -6 -4 -10 15 -15 22 -6 25 -9 13 -17 -12 -7 -12 -9 1
-10 26 -1 105 -65 102 -82 -2 -11 2 -15 11 -11 8 3 21 -6 31 -20 9 -14 40 -38
69 -52 57 -29 56 -26 -18 32 -27 21 -70 58 -95 80 -96 88 -116 103 -129 95z"/>
<path d="M2041 878 c2 -2 24 -21 47 -43 24 -22 40 -32 37 -23 -7 17 -67 68
-81 68 -4 0 -5 -1 -3 -2z"/>
<path d="M2015 801 c-11 -35 -14 -56 -7 -60 5 -3 12 -17 15 -31 3 -14 4 0 2
30 -2 31 1 64 7 73 5 10 8 23 5 30 -2 7 -12 -12 -22 -42z"/>
<path d="M2566 803 c7 -39 23 -77 29 -71 5 5 -25 108 -31 108 -3 0 -2 -17 2
-37z"/>
<path d="M1490 665 c1 -17 49 -70 57 -62 4 4 -7 22 -25 40 -18 17 -32 27 -32
22z"/>
<path d="M2364 663 c12 -13 96 -41 96 -33 0 4 -21 15 -47 24 -52 18 -60 19
-49 9z"/>
<path d="M2527 614 c51 -48 112 -94 95 -73 -6 9 -40 37 -75 64 -54 41 -56 42
-20 9z"/>
<path d="M1942 543 c-11 -48 -30 -137 -42 -197 -12 -60 -28 -127 -36 -149 -8
-22 -12 -42 -10 -45 11 -10 24 11 29 45 3 21 13 67 21 103 9 36 21 94 26 130
6 36 18 93 26 128 9 35 14 66 11 68 -3 3 -14 -34 -25 -83z"/>
<path d="M2900 608 c0 -32 13 -78 20 -73 4 3 4 21 0 41 -9 39 -20 57 -20 32z"/>
<path d="M2319 593 c5 -10 22 -30 39 -44 18 -17 32 -41 37 -65 4 -22 11 -44
15 -49 5 -6 11 -26 13 -45 2 -19 2 0 0 44 l-5 79 -48 48 c-51 51 -67 61 -51
32z"/>
<path d="M1600 535 c0 -8 -9 -15 -20 -15 -11 0 -20 5 -20 11 0 5 -5 7 -11 3
-7 -4 -6 -11 5 -22 12 -13 20 -13 41 -4 24 11 35 42 15 42 -5 0 -10 -7 -10
-15z"/>
<path d="M2470 461 c22 -33 66 -80 97 -104 32 -25 74 -61 93 -81 59 -62 162
-76 245 -33 28 14 59 34 69 46 19 21 19 21 -8 21 -15 0 -37 5 -49 11 -20 9
-20 9 2 -9 l23 -19 -38 -15 c-22 -9 -67 -19 -102 -23 -72 -8 -85 -2 -162 74
-26 25 -61 58 -76 73 -16 15 -47 47 -69 72 -57 65 -73 57 -25 -13z"/>
<path d="M2650 516 c0 -5 107 -88 130 -101 22 -12 3 5 -50 46 -25 18 -51 39
-58 46 -14 13 -22 16 -22 9z"/>
<path d="M2395 342 c6 -4 11 -25 13 -47 4 -61 30 -163 59 -232 39 -96 43 -75
7 34 -18 54 -38 129 -44 167 -12 77 -16 86 -33 86 -8 0 -8 -3 -2 -8z"/>
<path d="M1665 279 c-21 -13 -25 -19 -12 -19 9 0 17 -7 17 -15 0 -13 3 -13 20
-3 11 7 20 23 20 35 0 27 -6 28 -45 2z"/>
<path d="M1245 45 c8 -37 25 -57 25 -29 0 11 -7 29 -16 40 -15 18 -15 18 -9
-11z"/>
</g>
</svg>
